<svg width="27" height="27" viewBox="0 0 27 27" fill="" xmlns="http://www.w3.org/2000/svg">
<path d="M9.75949 24.4643V20.6308C9.75947 19.6558 10.5962 18.8635 11.6329 18.857H15.4304C16.472 18.857 17.3165 19.6512 17.3165 20.6308V20.6308V24.4762C17.3162 25.304 18.0188 25.9806 18.8987 26H21.4304C23.9541 26 26 24.0758 26 21.7023V21.7023V10.7973C25.9865 9.86353 25.5204 8.98669 24.7342 8.41629L16.0759 1.85663C14.5591 0.714458 12.4029 0.714458 10.8861 1.85663L2.26582 8.4282C1.47666 8.99628 1.00972 9.87458 1 10.8092V21.7023C1 24.0758 3.04589 26 5.56962 26H8.10127C9.0031 26 9.73418 25.3124 9.73418 24.4643V24.4643" stroke="#EDFCFD" stroke-width="1.5" stroke-linecap="round" stroke-linejoin="round"/>
</svg>
