<svg width="28" height="28" viewBox="0 0 25 30" fill="none" xmlns="http://www.w3.org/2000/svg">
<path d="M1 5C1 3.89543 1.89543 3 3 3H25V21H3C1.89543 21 1 20.1046 1 19V5Z" fill="white" stroke="#0BCAD4" stroke-width="2"/>
<rect x="11" width="17" height="23" fill="white"/>
<path d="M22.7071 12.7071C23.0976 12.3166 23.0976 11.6834 22.7071 11.2929L16.3431 4.92893C15.9526 4.53841 15.3195 4.53841 14.9289 4.92893C14.5384 5.31946 14.5384 5.95262 14.9289 6.34315L20.5858 12L14.9289 17.6569C14.5384 18.0474 14.5384 18.6805 14.9289 19.0711C15.3195 19.4616 15.9526 19.4616 16.3431 19.0711L22.7071 12.7071ZM22 11L6 11L6 13L22 13L22 11Z" fill="#0BCAD4"/>
</svg>
