<svg width="24" height="24" viewBox="0 0 24 24" fill="none" xmlns="http://www.w3.org/2000/svg">
<path fill-rule="evenodd" clip-rule="evenodd" d="M12 0.333336C5.56 0.333336 0.333334 5.56 0.333334 12C0.333334 18.44 5.56 23.6667 12 23.6667C18.44 23.6667 23.6667 18.44 23.6667 12C23.6667 5.56 18.44 0.333336 12 0.333336ZM6.24833 19.3267C6.75 18.2767 9.80667 17.25 12 17.25C14.1933 17.25 17.2617 18.2767 17.7517 19.3267C16.165 20.5867 14.17 21.3333 12 21.3333C9.83 21.3333 7.835 20.5867 6.24833 19.3267ZM12 14.9167C13.7033 14.9167 17.7517 15.605 19.42 17.635C20.61 16.0717 21.3333 14.1233 21.3333 12C21.3333 6.855 17.145 2.66667 12 2.66667C6.855 2.66667 2.66667 6.855 2.66667 12C2.66667 14.1233 3.39 16.0717 4.58 17.635C6.24833 15.605 10.2967 14.9167 12 14.9167ZM12 5C9.73667 5 7.91667 6.82 7.91667 9.08334C7.91667 11.3467 9.73667 13.1667 12 13.1667C14.2633 13.1667 16.0833 11.3467 16.0833 9.08334C16.0833 6.82 14.2633 5 12 5ZM10.25 9.08334C10.25 10.0517 11.0317 10.8333 12 10.8333C12.9683 10.8333 13.75 10.0517 13.75 9.08334C13.75 8.115 12.9683 7.33334 12 7.33334C11.0317 7.33334 10.25 8.115 10.25 9.08334Z" fill="#0BCAD4"/>
</svg>
