<svg width="25" height="25" viewBox="0 0 25 25" fill="#EDFCFD" xmlns="http://www.w3.org/2000/svg">
<path fill-rule="evenodd" clip-rule="evenodd" d="M25 12.5C25 19.4 19.4 25 12.5 25C5.6 25 0 19.4 0 12.5C0 5.6 5.6 0 12.5 0C19.4 0 25 5.6 25 12.5ZM8.75 15.3125C9.6125 15.3125 10.3125 14.6125 10.3125 13.75C10.3125 12.8875 9.6125 12.1875 8.75 12.1875C7.8875 12.1875 7.1875 12.8875 7.1875 13.75C7.1875 14.6125 7.8875 15.3125 8.75 15.3125ZM14.6875 13.75C14.6875 12.8875 15.3875 12.1875 16.25 12.1875C17.1125 12.1875 17.8125 12.8875 17.8125 13.75C17.8125 14.6125 17.1125 15.3125 16.25 15.3125C15.3875 15.3125 14.6875 14.6125 14.6875 13.75ZM19.375 7.5C15.75 7.5 12.575 5.55 10.825 2.65C11.3625 2.5625 11.925 2.5 12.5 2.5C16.125 2.5 19.3 4.45 21.05 7.35C20.5125 7.4375 19.95 7.5 19.375 7.5ZM3.025 9.33754C5.1625 8.12504 6.8125 6.15004 7.6 3.78754C5.4625 5.00004 3.8125 6.97504 3.025 9.33754ZM22.0875 9.70007C22.35 10.5876 22.5 11.5251 22.5 12.5001C22.5 18.0126 18.0125 22.5001 12.5 22.5001C6.9875 22.5001 2.5 18.0126 2.5 12.5001C2.5 12.4788 2.50145 12.4574 2.50287 12.4366C2.50562 12.3964 2.50824 12.358 2.5 12.3251C5.75 11.1001 8.3625 8.58757 9.675 5.38757C11.975 8.20007 15.4625 10.0001 19.375 10.0001C20.3125 10.0001 21.2125 9.88757 22.0875 9.70007Z" fill="#EDFCFD"/>
</svg>
